<svg id="그룹_491" data-name="그룹 491" xmlns="http://www.w3.org/2000/svg" xmlns:xlink="http://www.w3.org/1999/xlink" width="40" height="40" viewBox="0 0 40 40">
  <defs>
    <clipPath id="clip-path">
      <rect id="사각형_967" data-name="사각형 967" width="40" height="40" fill="#f70"/>
    </clipPath>
  </defs>
  <g id="그룹_490" data-name="그룹 490" clip-path="url(#clip-path)">
    <path id="패스_1257" data-name="패스 1257" d="M12.5,29.6,20,22.1l7.5,7.5,2.1-2.1L22.1,20l7.5-7.5-2.1-2.1L20,17.9l-7.5-7.5-2.1,2.1L17.9,20l-7.5,7.5ZM20,40a19.352,19.352,0,0,1-7.75-1.575A20.15,20.15,0,0,1,1.575,27.75,19.352,19.352,0,0,1,0,20a19.473,19.473,0,0,1,1.575-7.8,19.986,19.986,0,0,1,4.3-6.35A20.51,20.51,0,0,1,12.25,1.575,19.352,19.352,0,0,1,20,0a19.473,19.473,0,0,1,7.8,1.575A19.969,19.969,0,0,1,38.425,12.2,19.473,19.473,0,0,1,40,20a19.352,19.352,0,0,1-1.575,7.75,20.51,20.51,0,0,1-4.275,6.375,19.986,19.986,0,0,1-6.35,4.3A19.473,19.473,0,0,1,20,40m0-3a16.358,16.358,0,0,0,12.05-4.975A16.425,16.425,0,0,0,37,20,16.4,16.4,0,0,0,32.05,7.95,16.4,16.4,0,0,0,20,3,16.425,16.425,0,0,0,7.975,7.95,16.358,16.358,0,0,0,3,20,16.382,16.382,0,0,0,7.975,32.025,16.382,16.382,0,0,0,20,37" fill="#f70"/>
  </g>
</svg>